HIERARCHY
ROOT Hips
{
	OFFSET 51.084202 -8.487206 100.565002
	CHANNELS 6 Xposition Yposition Zposition Xrotation Yrotation Zrotation
	JOINT spine
	{
		OFFSET 0.000000 -0.507026 8.817039
		CHANNELS 3 Xrotation Yrotation Zrotation
		JOINT spine1
		{
			OFFSET 0.000000 -0.000002 10.776604
			CHANNELS 3 Xrotation Yrotation Zrotation
			JOINT spine2
			{
				OFFSET 0.000000 -0.000001 10.325897
				CHANNELS 3 Xrotation Yrotation Zrotation
				JOINT Neck
				{
					OFFSET 0.000000 -1.263955 26.511002
					CHANNELS 3 Xrotation Yrotation Zrotation
					JOINT Head
					{
						OFFSET 0.000000 -0.000001 8.009659
						CHANNELS 3 Xrotation Yrotation Zrotation
						End Site
						{
							OFFSET 0.000000 6.393857 19.387894
						}
					}
				}
				JOINT RightShoulder
				{
					OFFSET -4.347950 0.605420 11.151199
					CHANNELS 3 Xrotation Yrotation Zrotation
					JOINT RightArm
					{
						OFFSET 0.000000 -0.000003 14.625793
						CHANNELS 3 Xrotation Yrotation Zrotation
						JOINT RightArmRoll
						{
							OFFSET 0.000000 -0.000001 7.383392
							CHANNELS 3 Xrotation Yrotation Zrotation
							JOINT RightForeArm
							{
								OFFSET 0.000000 -0.000004 21.505203
								CHANNELS 3 Xrotation Yrotation Zrotation
								JOINT RightForeArmRoll
								{
									OFFSET 0.000000 -0.000001 8.285324
									CHANNELS 3 Xrotation Yrotation Zrotation
									JOINT RightHand
									{
										OFFSET 0.000000 -0.000003 16.626801
										CHANNELS 3 Xrotation Yrotation Zrotation
										End Site
										{
											OFFSET 0.000000 0.000000 0.100006
										}
									}
								}
							}
						}
					}
				}
				JOINT LeftShoulder
				{
					OFFSET 4.347950 0.605420 11.151199
					CHANNELS 3 Xrotation Yrotation Zrotation
					JOINT LeftArm
					{
						OFFSET 0.000000 -0.000003 14.625793
						CHANNELS 3 Xrotation Yrotation Zrotation
						JOINT LeftArmRoll
						{
							OFFSET 0.000000 -0.000001 7.383392
							CHANNELS 3 Xrotation Yrotation Zrotation
							JOINT LeftForeArm
							{
								OFFSET 0.000000 -0.000004 21.505203
								CHANNELS 3 Xrotation Yrotation Zrotation
								JOINT LeftForeArmRoll
								{
									OFFSET 0.000000 -0.000001 8.285324
									CHANNELS 3 Xrotation Yrotation Zrotation
									JOINT LeftHand
									{
										OFFSET 0.000000 -0.000003 16.626801
										CHANNELS 3 Xrotation Yrotation Zrotation
										End Site
										{
											OFFSET 0.000000 0.000000 0.100006
										}
									}
								}
							}
						}
					}
				}
			}
		}
	}
	JOINT RightUpLeg
	{
		OFFSET -7.815102 1.202170 -1.433090
		CHANNELS 3 Xrotation Yrotation Zrotation
		JOINT RightUpLegRoll
		{
			OFFSET 0.000000 -0.000003 19.495895
			CHANNELS 3 Xrotation Yrotation Zrotation
			JOINT RightLeg
			{
				OFFSET 0.000000 0.000004 -24.142700
				CHANNELS 3 Xrotation Yrotation Zrotation
				JOINT RightLegRoll
				{
					OFFSET 0.000000 -0.000004 24.221703
					CHANNELS 3 Xrotation Yrotation Zrotation
					JOINT RightFoot
					{
						OFFSET 0.000000 -0.000003 20.160500
						CHANNELS 3 Xrotation Yrotation Zrotation
						JOINT RightToeBase
						{
							OFFSET 0.000000 -0.000003 16.853195
							CHANNELS 3 Xrotation Yrotation Zrotation
							End Site
							{
								OFFSET 0.007145 0.940779 8.161865
							}
						}
					}
				}
			}
		}
	}
	JOINT LeftUpLeg
	{
		OFFSET 7.815102 1.202170 -1.433090
		CHANNELS 3 Xrotation Yrotation Zrotation
		JOINT LeftUpLegRoll
		{
			OFFSET 0.000000 -0.000003 19.496002
			CHANNELS 3 Xrotation Yrotation Zrotation
			JOINT LeftLeg
			{
				OFFSET 0.000000 -0.000004 24.142593
				CHANNELS 3 Xrotation Yrotation Zrotation
				JOINT LeftLegRoll
				{
					OFFSET 0.000000 -0.000004 24.445602
					CHANNELS 3 Xrotation Yrotation Zrotation
					JOINT LeftFoot
					{
						OFFSET 0.000000 -0.000003 19.936600
						CHANNELS 3 Xrotation Yrotation Zrotation
						JOINT LeftToeBase
						{
							OFFSET 0.000000 -0.000003 16.853195
							CHANNELS 3 Xrotation Yrotation Zrotation
							End Site
							{
								OFFSET -0.032013 0.940779 8.161865
							}
						}
					}
				}
			}
		}
	}
}
MOTION
Frames: 5
Frame Time: 0.041667
51.297695 -8.636488 100.579002 -1.237014 0.905784 2.497068 -2.512352 0.108126 -0.085006 -1.021728 0.218546 -0.180515 0.623346 0.216373 -0.183120 21.683228 2.898023 0.620075 -5.567226 6.479755 0.396630 -10.616450 -37.917122 -11.212250 -139.377127 -142.802904 -116.877992 -0.000002 0.000011 -0.000001 97.095162 3.167519 -0.766418 0.000001 0.000001 -3.005467 -5.000217 -7.998706 0.000159 -9.631702 63.651885 11.682932 -40.408430 113.539314 34.777950 -0.000000 -0.000004 0.000005 4.763504 13.192981 -0.203389 0.000008 -0.000006 2.999991 -5.000219 7.998853 -0.000141 -0.133425 -179.141997 -0.746842 -179.999991 0.000005 -1.048006 175.176525 -1.924165 -0.389346 -0.000002 0.000002 0.037750 68.667314 6.894886 2.143619 25.456953 -7.355612 0.000001 -0.454962 176.907090 2.230559 -0.000005 -0.000004 -1.090150 -8.120052 2.144256 0.472556 -0.000006 -0.000002 -0.145465 70.347540 -6.857547 -2.111614 25.605192 7.354673 -0.224938 
51.304401 -8.648180 100.581993 -1.235663 0.906746 2.494437 -2.512665 0.107992 -0.084943 -1.022348 0.219081 -0.179770 0.622731 0.216912 -0.182379 21.674839 2.933641 0.609265 -5.565385 6.483609 0.387410 -10.621755 -37.929488 -11.220285 -139.390965 -142.843325 -116.444685 -0.000002 0.000010 -0.000001 96.417163 3.023812 -0.574554 -0.000000 -0.000002 -3.005471 -5.000216 -7.998710 0.000160 -9.636699 63.656291 11.688971 -40.405248 113.543221 34.810787 -0.000000 -0.000004 0.000004 4.779874 13.218796 -0.208303 0.000008 -0.000005 2.999990 -5.000221 7.998852 -0.000140 -0.134486 -179.144018 -0.750869 -179.999991 0.000005 -1.048006 175.176334 -1.919183 -0.388933 -0.000002 0.000002 0.037745 68.667525 6.894900 2.143609 25.456952 -7.355613 0.000001 -0.455949 176.905096 2.228898 -0.000005 -0.000004 -1.090080 -8.118300 2.145482 0.472721 -0.000007 -0.000002 -0.145466 70.347752 -6.857551 -2.111602 25.603369 7.354678 -0.222234 
51.317196 -8.647789 100.590996 -1.234485 0.907478 2.492965 -2.512892 0.107940 -0.084870 -1.022797 0.219522 -0.178964 0.622280 0.217360 -0.181578 21.667541 2.968617 0.597396 -5.564304 6.489005 0.377079 -10.628001 -37.942367 -11.229617 -139.408464 -142.887885 -116.017156 0.000001 0.000012 -0.000001 95.719179 2.882366 -0.390002 -0.000000 0.000001 -3.005471 -5.000220 -7.998708 0.000157 -9.636835 63.661734 11.689472 -40.399893 113.546444 34.840942 0.000002 -0.000004 0.000005 4.796677 13.244602 -0.213231 0.000008 -0.000005 2.999992 -5.000219 7.998851 -0.000141 -0.134930 -179.145016 -0.754539 -179.999991 0.000006 -1.048005 175.176662 -1.913208 -0.389415 -0.000002 0.000002 0.037739 68.667949 6.894891 2.143583 25.456955 -7.355613 0.000001 -0.456470 176.904099 2.227774 -0.000004 -0.000004 -1.090020 -8.115932 2.146277 0.472874 -0.000006 -0.000002 -0.145461 70.347335 -6.857578 -2.111634 25.602361 7.354673 -0.220665 
51.319798 -8.633471 100.586990 -1.233375 0.907952 2.492557 -2.513113 0.107933 -0.084771 -1.023218 0.219932 -0.178010 0.621854 0.217779 -0.180629 21.661347 3.003156 0.584364 -5.564020 6.495407 0.365566 -10.634533 -37.956116 -11.239401 -139.430485 -142.936735 -115.593193 0.000001 0.000011 0.000001 94.993561 2.742845 -0.210629 0.000000 0.000000 -3.005469 -5.000216 -7.998712 0.000158 -9.631875 63.669015 11.684251 -40.395924 113.547660 34.872163 -0.000001 -0.000004 0.000004 4.813707 13.270799 -0.218190 0.000007 -0.000006 2.999990 -5.000219 7.998852 -0.000141 -0.134967 -179.146996 -0.757890 -179.999991 0.000005 -1.048006 175.177372 -1.908228 -0.388971 -0.000002 0.000002 0.037734 68.668372 6.894921 2.143561 25.456957 -7.355614 0.000001 -0.456692 176.903102 2.227243 -0.000005 -0.000004 -1.089950 -8.113061 2.146619 0.473022 -0.000007 -0.000002 -0.145450 70.346495 -6.857594 -2.111588 25.601957 7.354672 -0.220050 
51.317295 -8.636163 100.583992 -1.232314 0.908198 2.493096 -2.513313 0.107968 -0.084657 -1.023627 0.220317 -0.176938 0.621445 0.218175 -0.179560 21.656252 3.037347 0.570301 -5.564282 6.502623 0.353011 -10.641358 -37.970528 -11.249627 -139.456712 -142.989109 -115.173477 -0.000000 0.000009 0.000000 94.244405 2.605171 -0.036558 -0.000000 -0.000001 -3.005470 -5.000219 -7.998715 0.000160 -9.622768 63.677908 11.674338 -40.393367 113.546868 34.904456 -0.000001 -0.000003 0.000005 4.830841 13.297191 -0.223151 0.000008 -0.000006 2.999990 -5.000220 7.998853 -0.000140 -0.134657 -179.146996 -0.760967 -179.999991 0.000005 -1.046995 175.178411 -1.903248 -0.389514 -0.000002 0.000002 0.037728 68.669014 6.894926 2.143523 25.456957 -7.355613 0.000001 -0.456678 176.902091 2.227231 -0.000005 -0.000004 -1.089880 -8.109738 2.146597 0.473167 -0.000007 -0.000002 -0.145433 70.345109 -6.857603 -2.111576 25.602057 7.354676 -0.220248 
